<svg version="1.1" id="Layer_1" xmlns="http://www.w3.org/2000/svg" xmlns:xlink="http://www.w3.org/1999/xlink" x="0px" y="0px"
	 width="100%" viewBox="0 0 252 265" enable-background="new 0 0 252 265" xml:space="preserve">
<path fill="#125637" opacity="1.000000" stroke="none" 
	d="
M1.000000,100.000000 
	C1.000000,66.666664 1.000000,33.833332 1.000000,1.000000 
	C85.000000,1.000000 169.000000,1.000000 253.000000,1.000000 
	C253.000000,89.333336 253.000000,177.666672 253.000000,266.000000 
	C169.000000,266.000000 85.000000,266.000000 1.000000,266.000000 
	C1.000000,210.833328 1.000000,155.666672 1.000000,100.000000 
M128.191650,23.747845 
	C127.701462,24.126381 127.211273,24.504919 126.318108,24.998079 
	C126.059090,25.148249 125.904648,25.370922 125.218727,26.017187 
	C124.462082,28.360676 123.705444,30.704166 122.569786,33.452934 
	C122.982208,34.346985 123.394630,35.241035 123.932198,36.838078 
	C123.958084,37.551010 123.983971,38.263943 123.488541,39.510994 
	C118.363152,40.671364 113.237762,41.831734 107.796227,42.469242 
	C107.513504,41.933289 107.230782,41.397335 106.805389,40.267544 
	C106.478897,39.777458 106.152397,39.287373 105.821831,38.125862 
	C104.547119,37.044231 103.272408,35.962605 102.050240,34.978748 
	C102.050240,34.978748 102.147255,34.924828 101.864128,34.212231 
	C97.335228,31.770220 93.320831,33.186825 90.054161,36.422588 
	C85.658409,40.776726 87.285553,45.895916 88.910767,51.556938 
	C84.558632,54.721027 80.206490,57.885120 75.147339,60.879055 
	C69.308472,58.565754 65.413361,59.067955 62.249352,62.976849 
	C59.115192,66.848862 58.980007,71.038490 61.911346,75.839195 
	C62.618301,76.548767 63.325256,77.258331 64.545692,78.485016 
	C66.213623,78.923019 67.881554,79.361023 69.678482,79.838844 
	C69.678482,79.838844 69.765297,79.942223 69.895302,80.734505 
	C71.077927,83.927124 72.260544,87.119751 73.563362,90.677063 
	C73.563362,90.677063 73.841484,90.941811 73.861366,91.759300 
	C74.379013,93.672760 74.790619,95.622475 75.430489,97.494148 
	C82.999321,119.633781 90.602257,141.761749 98.380135,164.606201 
	C99.935661,168.422333 99.642822,173.446045 105.509666,174.913391 
	C105.680603,174.917282 105.851547,174.921158 106.550667,175.396729 
	C110.039787,176.573212 113.528908,177.749695 117.495750,178.987213 
	C117.495750,178.987213 117.976776,179.010849 118.451019,179.459869 
	C119.289413,179.618347 120.127800,179.776825 121.609329,180.018494 
	C122.040520,180.046967 122.471718,180.075424 123.446465,180.482620 
	C124.643822,180.338226 125.841179,180.193832 127.954224,179.988449 
	C131.248291,180.034821 134.553207,179.927216 137.834229,180.158554 
	C145.435623,180.694550 152.669724,179.915405 159.677124,175.045898 
	C161.121002,174.387085 162.564880,173.728287 164.610031,172.679398 
	C165.386230,170.118149 166.162415,167.556900 167.056198,164.265732 
	C169.064758,158.514053 171.073303,152.762375 173.533768,146.566727 
	C173.723419,145.748672 173.913071,144.930603 174.582932,143.580292 
	C182.038620,122.386269 189.494308,101.192245 197.605316,79.725868 
	C203.593323,76.524712 204.061523,75.468834 201.766022,71.804466 
	C202.144745,70.136925 202.523453,68.469391 202.947556,66.066093 
	C202.891220,65.095589 202.834885,64.125092 202.692383,62.471127 
	C196.959137,57.816959 190.765762,58.809475 186.352020,65.409355 
	C186.188889,67.630692 186.025757,69.852028 185.539001,72.537804 
	C186.340027,73.664581 187.141037,74.791359 188.053650,76.005371 
	C188.053650,76.005371 188.097321,76.140106 188.072235,76.767944 
	C187.994339,77.177826 187.916443,77.587700 187.133072,77.960487 
	C186.165024,77.417885 185.069336,77.021904 184.249878,76.308594 
	C179.352524,72.045670 174.518845,67.709595 169.662842,62.594372 
	C170.071777,60.124996 170.480728,57.655617 171.479248,55.078346 
	C173.040222,53.746937 174.825134,52.590488 176.062698,51.006420 
	C176.636230,50.272305 176.143875,48.705441 176.262817,46.767826 
	C176.168900,45.145527 176.074982,43.523224 175.994370,41.145844 
	C174.587952,39.126545 173.181534,37.107246 171.342361,34.417046 
	C163.506775,32.830612 160.321121,34.382198 157.095657,41.730633 
	C156.925629,42.823032 156.755600,43.915432 155.889786,44.953945 
	C150.858902,43.281563 145.828033,41.609180 140.964127,39.261528 
	C141.308212,38.398304 141.652283,37.535084 142.090561,36.042164 
	C142.034561,34.632790 141.978561,33.223415 141.949554,31.084192 
	C141.328781,27.521450 139.777588,24.743679 135.793015,23.733181 
	C135.793015,23.733181 135.572861,23.753237 134.940201,23.224855 
	C132.886078,23.393808 130.831940,23.562759 128.887650,23.829710 
	C128.887650,23.829710 128.828903,23.694744 128.191650,23.747845 
z"/>
<path fill="#155537" opacity="1.000000" stroke="none" 
	d="
M108.112381,42.992104 
	C113.237762,41.831734 118.363152,40.671364 123.940727,39.381512 
	C124.624283,39.467873 124.823723,39.710018 125.043915,40.272240 
	C125.718880,40.991238 126.341133,41.416458 127.216843,41.993340 
	C127.689209,42.468544 127.908134,42.792088 128.077637,43.564411 
	C128.088745,47.334743 128.149292,50.656292 128.179504,54.238777 
	C128.204941,54.665737 128.260696,54.831753 128.245667,55.328560 
	C128.209579,56.106983 128.244263,56.554607 128.182190,57.461464 
	C127.952049,64.297958 127.818680,70.675217 127.547867,77.459961 
	C127.382965,79.585274 127.355522,81.303108 127.228073,83.470802 
	C127.117851,87.608566 127.107635,91.296471 127.001999,95.430664 
	C126.700577,101.246239 126.494560,106.615524 126.199593,112.434036 
	C126.022247,115.639404 126.022682,118.402054 125.821220,121.149902 
	C125.607849,124.060226 124.176041,125.657303 120.938713,124.720718 
	C120.569366,124.313080 120.277496,124.152016 119.914490,123.836304 
	C119.843338,123.681656 119.540192,123.526733 119.460526,123.555908 
	C119.380852,123.585075 119.452896,123.738701 119.314880,123.418320 
	C118.447075,121.748390 117.717278,120.398857 116.988045,118.781509 
	C116.940033,118.341896 116.891464,118.170090 116.918167,117.681694 
	C116.623726,114.668472 116.253990,111.971832 115.887321,108.919525 
	C113.031471,95.946205 110.196220,83.323135 107.305260,70.712837 
	C105.402725,62.413979 101.249222,54.134090 107.478180,45.862022 
	C108.014366,45.149956 107.915985,43.960045 108.112381,42.992104 
z"/>
<path fill="#135436" opacity="1.000000" stroke="none" 
	d="
M140.797150,39.936798 
	C145.828033,41.609180 150.858902,43.281563 156.326935,45.368618 
	C157.912872,48.260086 159.061661,50.736877 160.250854,53.423798 
	C160.480240,53.866798 160.722443,54.009033 161.008209,54.027740 
	C160.998520,53.994843 160.933792,54.017506 160.926773,54.411156 
	C159.267181,62.403080 157.589508,69.996002 155.967484,77.600792 
	C152.961334,91.695183 150.086166,105.818466 146.950012,119.883682 
	C145.766312,125.192368 143.294647,125.979340 138.962585,122.611221 
	C139.001068,121.838211 139.094040,121.400826 139.390533,120.661652 
	C139.700607,118.904160 139.807175,117.448448 139.946075,115.564880 
	C139.626663,112.744331 139.274918,110.351654 138.971390,107.980461 
	C139.019608,108.001945 138.977859,108.098923 138.960083,107.687065 
	C138.679169,104.818329 138.416016,102.361458 138.366074,99.685593 
	C138.698456,98.664688 138.817627,97.862778 138.949066,96.678482 
	C138.967178,95.531097 138.973007,94.766090 138.991852,93.584396 
	C138.994690,91.777992 138.984512,90.388275 138.980255,88.595215 
	C138.970993,86.865906 138.955826,85.539940 138.948792,83.805405 
	C138.658463,81.869446 138.359985,80.342079 138.047256,78.436661 
	C137.994080,77.041046 137.955139,76.023468 137.935059,74.545845 
	C137.938217,70.654465 137.922546,67.223137 137.805664,63.451233 
	C137.275223,61.342728 136.845993,59.574791 136.583771,57.533516 
	C136.803635,56.177242 136.856506,55.094307 136.926819,53.558067 
	C136.898102,49.857384 136.851944,46.610008 137.081512,43.173836 
	C138.503876,41.968960 139.650513,40.952877 140.797150,39.936798 
z"/>
<path fill="#155537" opacity="1.000000" stroke="none" 
	d="
M75.854355,61.049213 
	C80.206490,57.885120 84.558632,54.721027 89.210800,51.287910 
	C89.510841,51.018887 89.946411,51.228699 90.041565,51.571861 
	C91.464012,52.644222 92.791306,53.373413 94.259140,54.475452 
	C96.129944,64.377167 98.168236,73.862495 99.522560,83.444496 
	C101.911415,100.345947 103.883118,117.306358 105.778481,134.426468 
	C104.034683,134.698364 102.541862,134.785889 101.007233,134.514526 
	C98.295692,128.105042 95.625977,122.054420 92.801064,115.797577 
	C92.319885,115.505577 91.993904,115.419800 91.631645,115.360428 
	C91.595375,115.386826 91.522003,115.335190 91.625595,115.068359 
	C91.806587,114.056961 91.883995,113.312401 91.653069,112.307022 
	C88.878700,107.215767 86.265472,102.453461 83.988747,97.535393 
	C81.787567,92.780472 79.932999,87.865089 78.307266,82.812149 
	C78.115326,82.018143 77.542297,81.432190 76.891556,80.949783 
	C76.813843,81.053345 76.878815,81.304001 76.750183,81.298882 
	C76.621552,81.293762 76.494926,81.069580 76.712563,81.005478 
	C76.930199,80.941383 77.021935,80.510788 77.397827,80.400208 
	C77.761528,79.538979 77.749329,78.788322 77.750748,77.600555 
	C78.406105,71.640503 81.452843,65.832504 75.854355,61.049213 
z"/>
<path fill="#145536" opacity="1.000000" stroke="none" 
	d="
M169.663803,63.398064 
	C174.518845,67.709595 179.352524,72.045670 184.249878,76.308594 
	C185.069336,77.021904 186.165024,77.417885 187.546082,78.229965 
	C187.984421,78.669571 188.009766,78.839706 187.808228,79.271729 
	C185.099762,85.369659 182.618195,91.205696 179.954010,97.348167 
	C174.850342,108.892860 170.038803,120.181786 164.888687,131.314072 
	C164.127701,132.958984 161.765198,133.862991 159.957123,134.844940 
	C160.592972,124.841698 161.415405,115.103333 162.556549,105.267075 
	C163.267288,103.617867 163.788025,102.086403 164.030884,100.512077 
	C165.938507,88.145355 167.792969,75.770447 169.663803,63.398064 
z"/>
<path fill="#EDDBBB" opacity="1.000000" stroke="none" 
	d="
M77.926178,83.020195 
	C79.932999,87.865089 81.787567,92.780472 83.988747,97.535393 
	C86.265472,102.453461 88.878700,107.215767 91.400543,112.368546 
	C91.478226,113.572327 91.500114,114.453758 91.522003,115.335190 
	C91.522003,115.335190 91.595375,115.386826 91.785828,115.566010 
	C92.302933,115.831398 92.629593,115.917595 92.956253,116.003799 
	C95.625977,122.054420 98.295692,128.105042 101.096008,134.858978 
	C102.629662,136.295441 104.380264,136.721237 105.359848,137.828888 
	C107.129196,139.829605 109.022430,142.084015 109.670174,144.546509 
	C109.955879,145.632645 107.350250,147.512665 106.004013,148.983505 
	C105.047089,150.028992 104.001060,150.992935 102.710510,151.947784 
	C101.950539,151.600510 101.474876,151.298752 100.805786,150.792374 
	C100.095047,150.389526 99.577736,150.191269 98.986313,149.635132 
	C94.602089,138.854721 90.291962,128.432205 85.931358,117.710007 
	C85.451332,117.052757 85.021790,116.695183 84.646652,116.246643 
	C84.701057,116.155670 84.551308,116.305733 84.630325,115.939499 
	C83.854416,114.028656 82.999481,112.484055 81.976624,110.669907 
	C81.564835,109.595848 81.320969,108.791336 81.239708,107.806458 
	C81.026718,107.050232 80.651123,106.474373 80.120804,105.563934 
	C77.924538,100.466843 75.883011,95.704323 73.841484,90.941811 
	C73.841484,90.941811 73.563362,90.677063 73.744080,90.152687 
	C72.538300,86.399612 71.151794,83.170921 69.765297,79.942223 
	C69.765297,79.942223 69.678482,79.838844 69.563110,79.507332 
	C69.342903,78.994713 69.238060,78.813606 69.110039,78.464325 
	C69.086853,78.296150 69.039352,77.959297 69.389847,77.866188 
	C73.182617,76.543678 73.407379,73.735741 72.906448,70.814728 
	C72.219658,66.809937 68.830498,67.092651 66.043869,66.429977 
	C68.272285,66.085510 71.131119,65.225517 72.252541,66.256081 
	C73.891960,67.762688 74.468330,70.572639 75.150131,72.927711 
	C75.682442,74.766449 75.685814,76.758308 75.796242,79.001358 
	C75.943817,79.903580 76.219368,80.486580 76.494926,81.069580 
	C76.494926,81.069580 76.621552,81.293762 76.721283,81.593193 
	C77.211609,82.282631 77.602196,82.672638 77.989990,83.030357 
	C77.987190,82.998070 77.926178,83.020195 77.926178,83.020195 
z"/>
<path fill="#B28765" opacity="1.000000" stroke="none" 
	d="
M196.949997,79.998215 
	C189.494308,101.192245 182.038620,122.386269 174.015518,143.586624 
	C170.543381,143.360168 167.638672,143.127380 164.799484,142.540161 
	C165.187836,140.897278 165.510666,139.608841 165.833496,138.320404 
	C165.615021,138.217896 165.396530,138.115387 165.178055,138.012878 
	C164.012985,139.390442 162.847931,140.767990 161.216675,142.110382 
	C158.325653,141.692841 155.843658,141.508347 153.503662,140.832367 
	C152.545822,140.555634 151.058594,138.906021 151.242065,138.411774 
	C152.313690,135.524994 153.809433,132.795654 155.311310,130.350571 
	C156.119781,133.313522 155.468582,136.846497 160.177551,136.945679 
	C162.701126,135.637115 164.835403,134.319946 167.340179,133.040985 
	C168.234497,132.756882 169.039627,132.556641 169.240417,132.094070 
	C172.809982,123.870590 176.338272,115.628471 179.748505,107.338150 
	C179.985352,106.762383 179.227127,105.777267 178.859924,104.818451 
	C179.175446,104.431183 179.562637,104.207977 180.271759,103.919571 
	C181.375198,101.192390 182.156693,98.530418 182.952606,95.651672 
	C182.967041,95.434898 182.998962,95.001556 183.191238,94.870102 
	C183.626007,94.537804 183.819321,94.297424 183.971497,94.002213 
	C183.979492,93.986908 184.001083,93.959961 184.306992,93.890823 
	C184.406830,92.879539 184.200760,91.937393 184.127808,90.721283 
	C184.835571,89.626854 185.410248,88.806396 186.252991,88.067856 
	C187.335968,86.745155 188.150894,85.340553 189.103424,83.654610 
	C189.491333,82.583977 189.741638,81.794685 190.193542,80.840775 
	C190.599350,80.207748 190.803543,79.739334 191.267548,79.134628 
	C191.987457,78.642632 192.447510,78.286911 193.142670,78.068024 
	C194.568497,78.802643 195.759247,79.400429 196.949997,79.998215 
z"/>
<path fill="#22160F" opacity="1.000000" stroke="none" 
	d="
M159.788239,136.937073 
	C155.468582,136.846497 156.119781,133.313522 155.357330,129.902527 
	C155.723938,124.069695 156.193893,119.022308 156.764160,113.547180 
	C157.537491,107.411400 158.210510,101.703362 159.003082,95.593712 
	C159.760239,89.794807 160.397873,84.397507 161.200821,78.620132 
	C162.237701,70.167892 163.109238,62.095745 164.231476,53.843925 
	C164.677307,52.877697 164.872421,52.091145 165.289368,51.054996 
	C166.716965,48.983192 167.922745,47.160984 169.443359,45.190739 
	C171.832474,43.995441 173.906754,42.948181 175.981049,41.900925 
	C176.074982,43.523224 176.168900,45.145527 175.913666,47.316341 
	C172.035965,49.174469 168.553970,50.533081 167.788208,55.325035 
	C165.695129,69.059265 163.765152,82.473007 162.083954,95.917854 
	C161.697052,99.012100 162.163879,102.213097 162.237823,105.364967 
	C161.415405,115.103333 160.592972,124.841698 159.908447,135.151489 
	C159.960297,136.127640 159.874268,136.532364 159.788239,136.937073 
z"/>
<path fill="#EADDC7" opacity="1.000000" stroke="none" 
	d="
M89.946411,51.228699 
	C89.946411,51.228699 89.510841,51.018887 89.281830,50.941677 
	C87.285553,45.895916 85.658409,40.776726 90.054161,36.422588 
	C93.320831,33.186825 97.335228,31.770220 101.649872,34.614433 
	C99.355125,38.340424 102.598244,39.860718 103.784988,42.410828 
	C102.520645,45.171738 101.294609,47.586494 99.640671,49.904209 
	C96.169556,49.507572 93.126335,49.207973 90.029221,48.736969 
	C89.844032,48.531662 89.712730,48.497761 89.581436,48.463863 
	C89.698822,48.661968 89.816208,48.860073 89.884956,49.419090 
	C89.873016,50.262897 89.909714,50.745800 89.946411,51.228699 
z"/>
<path fill="#281C15" opacity="1.000000" stroke="none" 
	d="
M100.068581,50.001251 
	C101.294609,47.586494 102.520645,45.171738 104.081589,42.217457 
	C105.260345,41.405743 106.104202,41.133560 106.948059,40.861382 
	C107.230782,41.397335 107.513504,41.933289 107.954300,42.730675 
	C107.915985,43.960045 108.014366,45.149956 107.478180,45.862022 
	C101.249222,54.134090 105.402725,62.413979 107.305260,70.712837 
	C110.196220,83.323135 113.031471,95.946205 115.501068,108.840973 
	C114.485458,108.287895 113.521255,107.544334 113.282928,106.614670 
	C108.792892,89.099953 104.388763,71.563210 99.930229,53.627449 
	C99.952034,52.149647 100.010307,51.075447 100.068581,50.001251 
z"/>
<path fill="#937553" opacity="1.000000" stroke="none" 
	d="
M81.077103,107.986832 
	C81.320969,108.791336 81.564835,109.595848 81.966232,111.025009 
	C82.932945,113.201691 83.742126,114.753716 84.551308,116.305733 
	C84.551308,116.305733 84.701057,116.155670 84.623253,116.540787 
	C84.600441,117.322159 84.655426,117.718414 84.731964,118.504486 
	C88.102699,127.552383 91.337372,136.257309 94.849808,144.848663 
	C96.583832,149.090057 98.830528,153.121857 100.984558,157.507538 
	C101.350639,158.501083 101.577408,159.235580 101.629135,160.235931 
	C102.036026,163.330688 102.617966,166.159607 102.930542,168.780472 
	C101.969696,167.132385 101.419518,165.592545 100.510750,164.306015 
	C100.189034,163.850555 98.993073,164.012634 98.196236,163.892776 
	C90.602257,141.761749 82.999321,119.633781 75.430489,97.494148 
	C74.790619,95.622475 74.379013,93.672760 73.851425,91.350555 
	C75.883011,95.704323 77.924538,100.466843 80.094376,105.864319 
	C80.507484,106.995132 80.792297,107.490982 81.077103,107.986832 
z"/>
<path fill="#C1A07E" opacity="1.000000" stroke="none" 
	d="
M173.081863,147.010696 
	C171.073303,152.762375 169.064758,158.514053 166.573135,164.636536 
	C162.783981,164.003082 159.477890,162.998825 156.114273,161.754608 
	C156.056747,161.514618 156.086044,161.021286 156.449463,160.984268 
	C158.756226,156.248886 160.699585,151.550522 163.120590,146.882935 
	C166.759445,146.946030 169.920654,146.978363 173.081863,147.010696 
z"/>
<path fill="#D8C2A2" opacity="1.000000" stroke="none" 
	d="
M75.924225,78.682129 
	C75.685814,76.758308 75.682442,74.766449 75.150131,72.927711 
	C74.468330,70.572639 73.891960,67.762688 72.252541,66.256081 
	C71.131119,65.225517 68.272285,66.085510 65.755798,66.671280 
	C64.511345,69.849541 63.701290,72.456802 62.621201,75.074432 
	C62.177071,75.131104 62.002968,75.177414 61.828869,75.223724 
	C58.980007,71.038490 59.115192,66.848862 62.249352,62.976849 
	C65.413361,59.067955 69.308472,58.565754 75.500847,60.964134 
	C81.452843,65.832504 78.406105,71.640503 77.597931,77.688393 
	C77.231537,78.358772 77.104584,78.552132 76.777832,78.676521 
	C76.311432,78.600441 76.117828,78.641281 75.924225,78.682129 
z"/>
<path fill="#71563D" opacity="1.000000" stroke="none" 
	d="
M117.976776,179.010849 
	C117.976776,179.010849 117.495750,178.987213 117.415588,178.686523 
	C117.895775,177.279861 118.456123,176.173874 119.467667,175.053024 
	C123.025490,175.279953 126.137016,175.774902 129.237839,175.715118 
	C137.862274,175.548843 146.676178,177.839264 155.382050,173.917511 
	C156.799500,174.305786 157.870743,174.678528 158.941971,175.051270 
	C152.669724,179.915405 145.435623,180.694550 137.834229,180.158554 
	C134.553207,179.927216 131.248291,180.034821 127.306236,179.793365 
	C125.406471,179.766830 124.154686,179.935364 122.902908,180.103882 
	C122.471718,180.075424 122.040520,180.046967 121.050430,179.758011 
	C119.653275,179.335297 118.815025,179.173065 117.976776,179.010849 
z"/>
<path fill="#C1A07E" opacity="1.000000" stroke="none" 
	d="
M162.556549,105.267075 
	C162.163879,102.213097 161.697052,99.012100 162.083954,95.917854 
	C163.765152,82.473007 165.695129,69.059265 168.261978,55.355965 
	C169.622711,55.113880 170.256195,55.150059 170.889664,55.186241 
	C170.480728,57.655617 170.071777,60.124996 169.663330,62.996216 
	C167.792969,75.770447 165.938507,88.145355 164.030884,100.512077 
	C163.788025,102.086403 163.267288,103.617867 162.556549,105.267075 
z"/>
<path fill="#CEB191" opacity="1.000000" stroke="none" 
	d="
M169.128525,45.338776 
	C167.922745,47.160984 166.716965,48.983192 165.048538,50.796204 
	C162.203354,47.587700 159.820801,44.388397 157.438248,41.189095 
	C160.321121,34.382198 163.506775,32.830612 171.148926,34.729263 
	C169.078400,35.632389 166.111191,35.755428 165.605042,36.934734 
	C164.996674,38.352165 166.359192,40.718853 167.111511,42.576057 
	C167.526733,43.601109 168.439865,44.424480 169.128525,45.338776 
z"/>
<path fill="#E1CAA5" opacity="1.000000" stroke="none" 
	d="
M122.948799,33.047657 
	C123.705444,30.704166 124.462082,28.360676 125.574471,26.278877 
	C125.927963,27.031124 125.898987,27.523247 125.927635,28.011992 
	C126.192894,32.537254 128.939545,35.383183 132.385208,34.714970 
	C136.101074,33.994354 137.713974,30.801910 136.630371,26.261213 
	C136.441376,25.469198 136.150955,24.701380 135.907379,23.922382 
	C139.777588,24.743679 141.328781,27.521450 141.620102,31.367023 
	C140.552200,31.813711 139.532471,31.725723 139.122437,32.183651 
	C136.987808,34.567616 135.008377,37.090553 132.676147,39.380962 
	C129.997696,38.103348 127.617996,37.009892 125.171051,35.599106 
	C124.385468,34.537071 123.667130,33.792362 122.948799,33.047657 
z"/>
<path fill="#FBF4E7" opacity="1.000000" stroke="none" 
	d="
M135.850189,23.827782 
	C136.150955,24.701380 136.441376,25.469198 136.630371,26.261213 
	C137.713974,30.801910 136.101074,33.994354 132.385208,34.714970 
	C128.939545,35.383183 126.192894,32.537254 125.927635,28.011992 
	C125.898987,27.523247 125.927963,27.031124 125.892487,26.103336 
	C125.904648,25.370922 126.059090,25.148249 126.851295,24.952637 
	C127.865952,24.503042 128.347427,24.098892 128.828903,23.694742 
	C128.828903,23.694744 128.887650,23.829710 129.310547,23.861183 
	C131.679916,23.846182 133.626389,23.799709 135.572861,23.753237 
	C135.572861,23.753237 135.793015,23.733181 135.850189,23.827782 
z"/>
<path fill="#B2926C" opacity="1.000000" stroke="none" 
	d="
M156.171799,161.994583 
	C159.477890,162.998825 162.783981,164.003082 166.514343,165.001495 
	C166.162415,167.556900 165.386230,170.118149 164.268219,172.472229 
	C162.184280,171.510666 160.501495,170.533035 158.687057,170.050812 
	C155.442993,169.188599 152.119537,168.625061 149.040329,167.652267 
	C151.558197,165.576767 153.864990,163.785675 156.171799,161.994583 
z"/>
<path fill="#22160F" opacity="1.000000" stroke="none" 
	d="
M192.907578,77.931198 
	C192.447510,78.286911 191.987457,78.642632 190.994202,79.082031 
	C190.275986,79.180527 190.090942,79.195343 189.903122,79.127083 
	C189.900360,79.044014 189.734772,79.058609 189.693970,78.768242 
	C189.134552,77.698616 188.615936,76.919357 188.097321,76.140106 
	C188.097321,76.140106 188.053650,76.005371 187.891403,75.708618 
	C187.485916,74.919388 187.242676,74.426918 187.302673,73.907196 
	C188.431519,73.508797 189.257126,73.137634 190.360535,72.582138 
	C191.455231,71.368057 192.272125,70.338326 193.371277,69.112076 
	C194.933212,68.046104 196.212875,67.176651 197.692871,66.053841 
	C199.562866,66.134270 201.232529,66.468063 202.902161,66.801857 
	C202.523453,68.469391 202.144745,70.136925 201.011597,71.763100 
	C196.723267,72.508476 191.834717,71.691833 192.907578,77.931198 
z"/>
<path fill="#F0E3D5" opacity="1.000000" stroke="none" 
	d="
M169.443359,45.190735 
	C168.439865,44.424480 167.526733,43.601109 167.111511,42.576057 
	C166.359192,40.718853 164.996674,38.352165 165.605042,36.934734 
	C166.111191,35.755428 169.078400,35.632389 171.365311,35.064716 
	C173.181534,37.107246 174.587952,39.126545 175.987701,41.523384 
	C173.906754,42.948181 171.832474,43.995441 169.443359,45.190735 
z"/>
<path fill="#B28765" opacity="1.000000" stroke="none" 
	d="
M148.829269,167.936676 
	C152.119537,168.625061 155.442993,169.188599 158.687057,170.050812 
	C160.501495,170.533035 162.184280,171.510666 163.967560,172.667282 
	C162.564880,173.728287 161.121002,174.387085 159.309540,175.048584 
	C157.870743,174.678528 156.799500,174.305786 155.214508,173.570023 
	C151.424225,172.808960 148.118668,172.563843 144.882935,171.950470 
	C143.181610,171.627960 141.602371,170.661392 140.200256,169.811310 
	C141.317505,169.671783 142.202499,169.706589 143.424255,169.816132 
	C144.520950,169.617004 145.280869,169.343155 146.305420,168.910034 
	C147.323120,168.479385 148.076187,168.208038 148.829269,167.936676 
z"/>
<path fill="#88674F" opacity="1.000000" stroke="none" 
	d="
M193.142670,78.068024 
	C191.834717,71.691833 196.723267,72.508476 200.642914,71.863678 
	C204.061523,75.468834 203.593323,76.524712 197.277649,79.862045 
	C195.759247,79.400429 194.568497,78.802643 193.142670,78.068024 
z"/>
<path fill="#B2926C" opacity="1.000000" stroke="none" 
	d="
M193.089020,69.308594 
	C192.272125,70.338326 191.455231,71.368057 190.320221,72.140007 
	C188.956665,69.590614 187.911240,67.299011 186.865799,65.007408 
	C190.765762,58.809475 196.959137,57.816959 202.397278,62.706791 
	C200.091629,62.345455 198.081085,61.748455 195.697937,61.149246 
	C190.703110,62.805279 191.821854,66.036598 193.089020,69.308594 
z"/>
<path fill="#88674F" opacity="1.000000" stroke="none" 
	d="
M157.266953,41.459862 
	C159.820801,44.388397 162.203354,47.587700 164.826721,51.045799 
	C164.872421,52.091145 164.677307,52.877697 163.848053,53.863930 
	C162.453888,54.048241 161.693848,54.032875 160.933792,54.017509 
	C160.933792,54.017506 160.998520,53.994843 160.923874,53.843250 
	C160.694824,53.454117 160.481903,53.294788 160.210434,53.213669 
	C159.061661,50.736877 157.912872,48.260086 156.674835,45.395561 
	C156.755600,43.915432 156.925629,42.823032 157.266953,41.459862 
z"/>
<path fill="#9A7E63" opacity="1.000000" stroke="none" 
	d="
M171.184448,55.132294 
	C170.256195,55.150059 169.622711,55.113880 168.515472,55.046772 
	C168.553970,50.533081 172.035965,49.174469 175.849640,47.690483 
	C176.143875,48.705441 176.636230,50.272305 176.062698,51.006420 
	C174.825134,52.590488 173.040222,53.746937 171.184448,55.132294 
z"/>
<path fill="#796349" opacity="1.000000" stroke="none" 
	d="
M119.016472,175.067886 
	C118.456123,176.173874 117.895775,177.279861 117.176727,178.656006 
	C113.528908,177.749695 110.039787,176.573212 106.429390,174.898514 
	C106.901230,173.884415 107.494347,173.368515 108.455734,172.891602 
	C109.317863,172.939117 109.811714,172.947647 110.592026,172.930481 
	C111.260788,172.939453 111.643089,172.974106 112.355865,173.086090 
	C114.214844,175.731201 116.428360,176.022095 119.016472,175.067886 
z"/>
<path fill="#BC9370" opacity="1.000000" stroke="none" 
	d="
M173.307816,146.788712 
	C169.920654,146.978363 166.759445,146.946030 163.221527,146.575165 
	C163.474518,145.122635 164.104233,144.008606 164.733948,142.894592 
	C167.638672,143.127380 170.543381,143.360168 173.775421,143.852753 
	C173.913071,144.930603 173.723419,145.748672 173.307816,146.788712 
z"/>
<path fill="#281C15" opacity="1.000000" stroke="none" 
	d="
M132.974930,39.565117 
	C135.008377,37.090553 136.987808,34.567616 139.122437,32.183651 
	C139.532471,31.725723 140.552200,31.813711 141.606598,31.731949 
	C141.978561,33.223415 142.034561,34.632790 141.653458,36.401386 
	C137.398621,36.616924 135.754807,38.949478 134.635620,42.341640 
	C133.869034,42.517662 133.428818,42.603420 132.981934,42.168343 
	C132.975143,40.953377 132.975037,40.259247 132.974930,39.565117 
z"/>
<path fill="#796349" opacity="1.000000" stroke="none" 
	d="
M98.288185,164.249481 
	C98.993073,164.012634 100.189034,163.850555 100.510750,164.306015 
	C101.419518,165.592545 101.969696,167.132385 102.956711,169.056625 
	C103.504211,170.019745 103.756157,170.498657 104.133049,171.285858 
	C104.511391,172.651642 104.764786,173.709122 105.018173,174.766586 
	C99.642822,173.446045 99.935661,168.422333 98.288185,164.249481 
z"/>
<path fill="#88674F" opacity="1.000000" stroke="none" 
	d="
M132.676147,39.380962 
	C132.975037,40.259247 132.975143,40.953377 132.721619,42.334541 
	C131.648087,43.075840 130.828217,43.130100 129.697037,43.135269 
	C128.966187,43.095997 128.546616,43.105812 128.127060,43.115627 
	C127.908134,42.792088 127.689209,42.468544 127.143196,41.708107 
	C126.207809,40.840298 125.599510,40.409382 124.991219,39.978466 
	C124.823723,39.710018 124.624283,39.467873 124.201385,39.114452 
	C123.983971,38.263943 123.958084,37.551010 124.227097,36.429672 
	C124.760765,35.986328 124.999535,35.951382 125.238304,35.916431 
	C127.617996,37.009892 129.997696,38.103348 132.676147,39.380962 
z"/>
<path fill="#796349" opacity="1.000000" stroke="none" 
	d="
M186.608917,65.208382 
	C187.911240,67.299011 188.956665,69.590614 190.042419,72.324341 
	C189.257126,73.137634 188.431519,73.508797 187.248779,73.626778 
	C186.548645,72.940186 186.205643,72.506775 185.862640,72.073364 
	C186.025757,69.852028 186.188889,67.630692 186.608917,65.208382 
z"/>
<path fill="#EADDC7" opacity="1.000000" stroke="none" 
	d="
M196.070526,61.151455 
	C198.081085,61.748455 200.091629,62.345455 202.440369,63.048523 
	C202.834885,64.125092 202.891220,65.095589 202.924866,66.433975 
	C201.232529,66.468063 199.562866,66.134270 197.393127,65.786697 
	C196.618881,64.232437 196.344711,62.691944 196.070526,61.151455 
z"/>
<path fill="#88674F" opacity="1.000000" stroke="none" 
	d="
M134.961990,42.251381 
	C135.754807,38.949478 137.398621,36.616924 141.606354,36.716232 
	C141.652283,37.535084 141.308212,38.398304 140.880646,39.599163 
	C139.650513,40.952877 138.503876,41.968960 136.920334,43.105591 
	C136.483429,43.226139 136.207367,43.009823 135.952225,42.963852 
	C135.452057,42.695713 135.207016,42.473549 134.961990,42.251381 
z"/>
<path fill="#9A7E63" opacity="1.000000" stroke="none" 
	d="
M106.876724,40.564461 
	C106.104202,41.133560 105.260345,41.405743 104.119896,41.871300 
	C102.598244,39.860718 99.355125,38.340424 101.791428,34.970734 
	C102.147255,34.924828 102.050240,34.978748 102.140038,35.219189 
	C103.428520,36.572182 104.627213,37.684734 105.825897,38.797291 
	C106.152397,39.287373 106.478897,39.777458 106.876724,40.564461 
z"/>
<path fill="#937553" opacity="1.000000" stroke="none" 
	d="
M69.830299,80.338364 
	C71.151794,83.170921 72.538300,86.399612 73.683983,89.970337 
	C72.260544,87.119751 71.077927,83.927124 69.830299,80.338364 
z"/>
<path fill="#796349" opacity="1.000000" stroke="none" 
	d="
M123.174683,180.293243 
	C124.154686,179.935364 125.406471,179.766830 126.848389,179.823868 
	C125.841179,180.193832 124.643822,180.338226 123.174683,180.293243 
z"/>
<path fill="#937553" opacity="1.000000" stroke="none" 
	d="
M105.263916,174.839996 
	C104.764786,173.709122 104.511391,172.651642 104.457336,171.333038 
	C105.800262,171.665482 106.943863,172.259048 108.087463,172.852615 
	C107.494347,173.368515 106.901230,173.884415 106.165298,174.662674 
	C105.851547,174.921158 105.680603,174.917282 105.263916,174.839996 
z"/>
<path fill="#937553" opacity="1.000000" stroke="none" 
	d="
M125.171051,35.599106 
	C124.999535,35.951382 124.760765,35.986328 124.164536,36.078178 
	C123.394630,35.241035 122.982208,34.346985 122.759293,33.250298 
	C123.667130,33.792362 124.385468,34.537071 125.171051,35.599106 
z"/>
<path fill="#EADDC7" opacity="1.000000" stroke="none" 
	d="
M105.823868,38.461578 
	C104.627213,37.684734 103.428520,36.572182 102.113770,35.170303 
	C103.272408,35.962605 104.547119,37.044231 105.823868,38.461578 
z"/>
<path fill="#937553" opacity="1.000000" stroke="none" 
	d="
M69.133224,78.632507 
	C69.238060,78.813606 69.342903,78.994713 69.498611,79.487427 
	C67.881554,79.361023 66.213623,78.923019 64.474777,78.030792 
	C64.527817,77.446098 64.651764,77.315636 65.098236,77.226974 
	C66.227463,77.575981 67.034157,77.883194 68.019989,78.349380 
	C68.199120,78.508354 68.655060,78.654083 68.655060,78.654083 
	C68.655060,78.654083 69.133224,78.632507 69.133224,78.632507 
z"/>
<path fill="#145536" opacity="1.000000" stroke="none" 
	d="
M185.700821,72.305588 
	C186.205643,72.506775 186.548645,72.940186 186.945541,73.654022 
	C187.242676,74.426918 187.485916,74.919388 187.835602,75.665009 
	C187.141037,74.791359 186.340027,73.664581 185.700821,72.305588 
z"/>
<path fill="#E1CAA5" opacity="1.000000" stroke="none" 
	d="
M135.256531,23.489046 
	C133.626389,23.799709 131.679916,23.846182 129.255630,23.812183 
	C130.831940,23.562759 132.886078,23.393808 135.256531,23.489046 
z"/>
<path fill="#A68565" opacity="1.000000" stroke="none" 
	d="
M188.084778,76.454025 
	C188.615936,76.919357 189.134552,77.698616 189.410828,78.765564 
	C188.790695,79.038780 188.412918,79.024315 188.035126,79.009842 
	C188.009766,78.839706 187.984421,78.669571 187.898819,78.248512 
	C187.916443,77.587700 187.994339,77.177826 188.084778,76.454025 
z"/>
<path fill="#937553" opacity="1.000000" stroke="none" 
	d="
M61.870110,75.531464 
	C62.002968,75.177414 62.177071,75.131104 62.761147,75.324875 
	C63.705986,76.105019 64.240845,76.645088 64.775703,77.185165 
	C64.651764,77.315636 64.527817,77.446098 64.218040,77.772232 
	C63.325256,77.258331 62.618301,76.548767 61.870110,75.531464 
z"/>
<path fill="#796349" opacity="1.000000" stroke="none" 
	d="
M118.213898,179.235352 
	C118.815025,179.173065 119.653275,179.335297 120.728851,179.716415 
	C120.127800,179.776825 119.289413,179.618347 118.213898,179.235352 
z"/>
<path fill="#E1CAA5" opacity="1.000000" stroke="none" 
	d="
M128.510284,23.721292 
	C128.347427,24.098892 127.865952,24.503042 127.052780,24.895325 
	C127.211273,24.504919 127.701462,24.126381 128.510284,23.721292 
z"/>
<path fill="#EBD8B6" opacity="1.000000" stroke="none" 
	d="
M99.966698,54.031059 
	C104.388763,71.563210 108.792892,89.099953 113.282928,106.614670 
	C113.521255,107.544334 114.485458,108.287895 115.498001,109.196640 
	C116.253990,111.971832 116.623726,114.668472 116.596321,117.787491 
	C114.266945,122.255760 112.522331,126.408310 110.312294,130.296295 
	C109.398605,131.903687 107.487129,132.943909 106.029465,134.242081 
	C103.883118,117.306358 101.911415,100.345947 99.522560,83.444496 
	C98.168236,73.862495 96.129944,64.377167 94.678055,54.478516 
	C96.626511,54.082844 98.296608,54.056953 99.966698,54.031059 
z"/>
<path fill="#EAD6B4" opacity="1.000000" stroke="none" 
	d="
M105.778481,134.426468 
	C107.487129,132.943909 109.398605,131.903687 110.312294,130.296295 
	C112.522331,126.408310 114.266945,122.255760 116.521042,118.104073 
	C116.891464,118.170090 116.940033,118.341896 116.993477,119.140572 
	C117.816528,121.091202 118.634712,122.414955 119.452896,123.738701 
	C119.452896,123.738701 119.380852,123.585075 119.277222,123.936127 
	C116.543434,130.967163 112.273621,137.474304 116.656448,145.036072 
	C113.896996,147.101822 111.478775,149.061005 108.674500,151.032135 
	C106.523895,151.360489 104.759354,151.676895 102.994812,151.993286 
	C104.001060,150.992935 105.047089,150.028992 106.004013,148.983505 
	C107.350250,147.512665 109.955879,145.632645 109.670174,144.546509 
	C109.022430,142.084015 107.129196,139.829605 105.359848,137.828888 
	C104.380264,136.721237 102.629662,136.295441 101.137833,135.217834 
	C102.541862,134.785889 104.034683,134.698364 105.778481,134.426468 
z"/>
<path fill="#E1CAA5" opacity="1.000000" stroke="none" 
	d="
M121.016197,124.967278 
	C124.176041,125.657303 125.607849,124.060226 125.821220,121.149902 
	C126.022682,118.402054 126.022247,115.639404 126.551697,112.412498 
	C128.362549,110.358360 129.739777,108.781364 131.100067,107.189888 
	C132.568832,105.471512 134.021759,103.739601 135.602081,102.366547 
	C135.773727,104.478256 135.824921,106.237007 135.548691,108.104187 
	C132.414352,115.192467 129.522446,122.139755 126.830635,129.163727 
	C125.066444,133.767227 123.000824,138.416992 125.147163,143.611694 
	C125.064140,143.722122 124.937820,143.967850 124.563934,143.933487 
	C123.442093,143.887283 122.694138,143.875443 121.934647,143.466278 
	C122.064133,139.518585 122.374039,135.963531 122.276100,132.419754 
	C122.225891,130.602859 121.446770,128.806122 120.993080,126.764915 
	C120.989105,126.529564 120.984474,126.058823 120.995186,125.786011 
	C121.009331,125.331230 121.012764,125.149254 121.016197,124.967278 
z"/>
<path fill="#E5CEAC" opacity="1.000000" stroke="none" 
	d="
M135.481598,102.013596 
	C134.021759,103.739601 132.568832,105.471512 131.100067,107.189888 
	C129.739777,108.781364 128.362549,110.358360 126.640656,111.963264 
	C126.494560,106.615524 126.700577,101.246239 127.210312,95.151131 
	C127.684036,93.275627 127.854034,92.125946 128.350494,90.890854 
	C130.683121,88.865852 132.689270,86.926277 134.795959,85.378601 
	C134.984177,86.843689 135.071884,87.916885 135.098572,89.450470 
	C135.185562,93.945107 135.333572,97.979355 135.481598,102.013596 
z"/>
<path fill="#EDDBBB" opacity="1.000000" stroke="none" 
	d="
M134.635620,42.341640 
	C135.207016,42.473549 135.452057,42.695713 135.875244,43.416420 
	C136.083817,47.287502 136.114243,50.660046 136.091339,53.932037 
	C136.038010,53.831490 135.830811,53.925743 135.659454,53.956322 
	C135.488113,53.986904 135.140396,53.970352 135.084778,53.590454 
	C134.978775,52.133862 134.928391,51.057175 134.878006,49.980484 
	C134.615540,49.989845 134.353088,49.999207 134.090637,50.008568 
	C134.090637,55.995670 134.090637,61.982777 133.995972,68.221664 
	C133.856476,68.647079 133.811646,68.820717 133.463440,69.099190 
	C131.772278,70.470055 130.384476,71.736092 128.994446,72.535988 
	C128.754456,67.047310 128.516708,62.024773 128.278946,57.002235 
	C128.244263,56.554607 128.209579,56.106983 128.409851,55.196991 
	C128.826706,54.515438 128.958893,54.269531 129.272217,53.666405 
	C129.671494,49.952065 129.839920,46.568214 130.008331,43.184361 
	C130.828217,43.130100 131.648087,43.075840 132.728287,42.855381 
	C133.428818,42.603420 133.869034,42.517662 134.635620,42.341640 
z"/>
<path fill="#EBD8B6" opacity="1.000000" stroke="none" 
	d="
M128.996674,73.002136 
	C130.384476,71.736092 131.772278,70.470055 133.526245,69.351669 
	C133.988312,69.999619 134.084213,70.499931 134.150024,71.464729 
	C134.311768,76.281715 134.503601,80.634216 134.695435,84.986710 
	C132.689270,86.926277 130.683121,88.865852 128.348404,90.473915 
	C127.789261,87.768585 127.558670,85.394760 127.328079,83.020943 
	C127.355522,81.303108 127.382965,79.585274 127.807983,77.281647 
	C128.469269,75.464607 128.732971,74.233376 128.996674,73.002136 
z"/>
<path fill="#E6D1B0" opacity="1.000000" stroke="none" 
	d="
M120.984467,126.058823 
	C120.984474,126.058823 120.989105,126.529564 120.697144,126.960999 
	C116.886971,132.849106 115.437393,138.354874 119.966492,144.187744 
	C119.922028,144.371887 119.899132,144.750061 119.537643,144.797775 
	C118.449997,144.873505 117.723846,144.901505 116.997688,144.929504 
	C112.273621,137.474304 116.543434,130.967163 119.356895,123.906952 
	C119.540192,123.526733 119.843338,123.681656 119.959091,124.129135 
	C120.378059,125.070686 120.681267,125.564758 120.984467,126.058823 
z"/>
<path fill="#E1CAA5" opacity="1.000000" stroke="none" 
	d="
M128.994446,72.535995 
	C128.732971,74.233376 128.469269,75.464607 127.945442,76.874161 
	C127.818680,70.675217 127.952049,64.297958 128.182190,57.461464 
	C128.516708,62.024773 128.754456,67.047310 128.994446,72.535995 
z"/>
<path fill="#EBD8B6" opacity="1.000000" stroke="none" 
	d="
M129.697052,43.135269 
	C129.839920,46.568214 129.671494,49.952065 129.064087,53.658916 
	C128.625122,53.981915 128.209839,53.977840 128.209839,53.977840 
	C128.149292,50.656292 128.088745,47.334743 128.077637,43.564411 
	C128.546616,43.105812 128.966187,43.095997 129.697052,43.135269 
z"/>
<path fill="#E1CAA5" opacity="1.000000" stroke="none" 
	d="
M127.228073,83.470802 
	C127.558670,85.394760 127.789261,87.768585 128.021942,90.559341 
	C127.854034,92.125946 127.684036,93.275627 127.305725,94.704834 
	C127.107635,91.296471 127.117851,87.608566 127.228073,83.470802 
z"/>
<path fill="#E6D1B0" opacity="1.000000" stroke="none" 
	d="
M119.314880,123.418320 
	C118.634712,122.414955 117.816528,121.091202 116.992912,119.408386 
	C117.717278,120.398857 118.447075,121.748390 119.314880,123.418320 
z"/>
<path fill="#937553" opacity="1.000000" stroke="none" 
	d="
M125.043915,40.272240 
	C125.599510,40.409382 126.207809,40.840298 126.889748,41.556442 
	C126.341133,41.416458 125.718880,40.991238 125.043915,40.272240 
z"/>
<path fill="#DCC39F" opacity="1.000000" stroke="none" 
	d="
M120.995178,125.786011 
	C120.681267,125.564758 120.378059,125.070686 120.030243,124.283783 
	C120.277496,124.152016 120.569366,124.313080 120.938713,124.720718 
	C121.012764,125.149254 121.009331,125.331230 120.995178,125.786011 
z"/>
<path fill="#E1CAA5" opacity="1.000000" stroke="none" 
	d="
M128.179504,54.238777 
	C128.209839,53.977840 128.625122,53.981915 128.833252,53.989403 
	C128.958893,54.269531 128.826706,54.515438 128.480621,54.866196 
	C128.260696,54.831753 128.204941,54.665737 128.179504,54.238777 
z"/>
<path fill="#CFB18B" opacity="1.000000" stroke="none" 
	d="
M160.926773,54.411156 
	C161.693848,54.032875 162.453888,54.048241 163.597351,54.043602 
	C163.109238,62.095745 162.237701,70.167892 160.849609,78.685791 
	C158.906891,81.010612 156.718231,82.698296 156.189941,84.802773 
	C154.182205,92.800812 152.711136,100.933571 150.963928,109.397438 
	C150.379807,111.696327 149.931152,113.632164 149.349121,115.527016 
	C148.388275,118.655228 148.075150,122.328377 146.184738,124.756302 
	C141.613037,130.627869 139.178558,136.573502 141.650986,143.933228 
	C140.867523,144.042664 140.420166,144.102707 139.562408,144.091751 
	C137.766602,144.020340 136.381210,144.019928 134.951416,143.895233 
	C134.906998,143.770966 134.801880,143.528870 134.843628,143.055939 
	C135.590988,138.557648 136.217255,134.516144 137.030853,130.512741 
	C137.549316,127.961594 138.345444,125.466873 139.017075,122.946854 
	C143.294647,125.979340 145.766312,125.192368 146.950012,119.883682 
	C150.086166,105.818466 152.961334,91.695183 155.967484,77.600792 
	C157.589508,69.996002 159.267181,62.403080 160.926773,54.411156 
z"/>
<path fill="#D8BB98" opacity="1.000000" stroke="none" 
	d="
M138.962585,122.611221 
	C138.345444,125.466873 137.549316,127.961594 137.030853,130.512741 
	C136.217255,134.516144 135.590988,138.557648 134.441193,143.085693 
	C132.666443,143.416412 131.335922,143.244446 129.935638,142.672180 
	C130.024979,138.925888 129.650909,135.444473 130.458801,132.263260 
	C131.947388,126.401634 134.130386,120.716347 136.365997,114.866508 
	C137.141006,113.499413 137.574051,112.223396 138.001556,110.597206 
	C137.979767,109.780388 137.963516,109.313744 138.027130,108.614273 
	C138.106964,108.381447 138.486435,108.067642 138.486435,108.067642 
	C138.486435,108.067642 138.977859,108.098923 138.977859,108.098923 
	C138.977859,108.098923 139.019608,108.001945 138.998199,108.429077 
	C139.014954,111.235207 139.053101,113.614197 138.992889,116.399750 
	C138.992004,118.192024 139.089508,119.577728 139.187012,120.963440 
	C139.094040,121.400826 139.001068,121.838211 138.962585,122.611221 
z"/>
<path fill="#281C15" opacity="1.000000" stroke="none" 
	d="
M138.960083,107.687065 
	C138.977859,108.098923 138.486435,108.067642 138.486435,108.067642 
	C138.486435,108.067642 138.106964,108.381447 137.716797,108.646164 
	C136.843124,108.605850 136.359604,108.300812 135.876099,107.995773 
	C135.824921,106.237007 135.773727,104.478256 135.602081,102.366547 
	C135.333572,97.979355 135.185562,93.945107 135.365326,89.448593 
	C136.048691,88.986153 136.404312,88.985985 136.849716,89.372345 
	C137.011261,91.409920 137.082993,93.060966 137.154739,94.712006 
	C137.477432,94.471870 137.800140,94.231743 138.336823,93.996277 
	C138.550797,94.000938 138.978836,94.001083 138.978836,94.001083 
	C138.973007,94.766090 138.967178,95.531097 138.750732,96.908920 
	C138.411041,98.316017 138.281952,99.110298 138.152847,99.904579 
	C138.416016,102.361458 138.679169,104.818329 138.960083,107.687065 
z"/>
<path fill="#9A7E63" opacity="1.000000" stroke="none" 
	d="
M136.416779,57.806858 
	C136.845993,59.574791 137.275223,61.342728 137.602631,63.686691 
	C137.320236,64.848862 137.139633,65.435005 136.684937,65.990799 
	C136.227692,65.976662 136.044556,65.992874 135.658783,65.669724 
	C135.349045,62.870487 135.241943,60.410614 135.328766,57.980396 
	C135.522720,58.010052 135.914551,57.988914 136.035492,57.930664 
	C136.156433,57.872410 136.416779,57.806858 136.416779,57.806858 
z"/>
<path fill="#796349" opacity="1.000000" stroke="none" 
	d="
M138.061493,78.814705 
	C138.359985,80.342079 138.658463,81.869446 138.739685,83.748962 
	C138.522415,84.101112 138.100250,84.005356 137.712128,84.010689 
	C137.065292,84.018433 136.806564,84.020844 136.373138,83.695656 
	C136.179092,81.881424 136.159744,80.394783 136.364014,78.949875 
	C136.587631,78.991600 137.042557,79.004066 137.298645,78.964043 
	C137.723663,78.887581 137.892578,78.851143 138.061493,78.814705 
z"/>
<path fill="#22160F" opacity="1.000000" stroke="none" 
	d="
M136.959015,66.021149 
	C137.139633,65.435005 137.320236,64.848862 137.703857,64.027260 
	C137.922546,67.223137 137.938217,70.654465 137.735626,74.551956 
	C137.517349,75.018112 137.117050,75.031525 137.064850,74.582535 
	C136.994766,71.429405 136.976898,68.725281 136.959015,66.021149 
z"/>
<path fill="#1E120C" opacity="1.000000" stroke="none" 
	d="
M136.144684,54.032585 
	C136.114243,50.660046 136.083817,47.287502 136.130371,43.462395 
	C136.207367,43.009823 136.483429,43.226139 136.644592,43.294384 
	C136.851944,46.610008 136.898102,49.857384 136.736084,53.564411 
	C136.527893,54.024059 136.144684,54.032585 136.144684,54.032585 
z"/>
<path fill="#1E120C" opacity="1.000000" stroke="none" 
	d="
M139.091263,115.993195 
	C139.053101,113.614197 139.014954,111.235207 138.949982,108.407593 
	C139.274918,110.351654 139.626663,112.744331 139.740784,115.566055 
	C139.503143,115.995094 139.091263,115.993195 139.091263,115.993195 
z"/>
<path fill="#37281C" opacity="1.000000" stroke="none" 
	d="
M138.100250,84.005356 
	C138.100250,84.005356 138.522415,84.101112 138.731537,84.157547 
	C138.955826,85.539940 138.970993,86.865906 138.771698,88.596375 
	C138.557220,89.000893 138.137894,89.019485 138.044556,88.776627 
	C137.909027,88.365509 137.866852,88.197266 137.911591,87.634239 
	C138.032425,86.161430 138.066330,85.083389 138.100250,84.005356 
z"/>
<path fill="#281C15" opacity="1.000000" stroke="none" 
	d="
M138.992889,116.399750 
	C139.091263,115.993195 139.503143,115.995094 139.708435,115.993919 
	C139.807175,117.448448 139.700607,118.904160 139.390533,120.661652 
	C139.089508,119.577728 138.992004,118.192024 138.992889,116.399750 
z"/>
<path fill="#1E120C" opacity="1.000000" stroke="none" 
	d="
M138.137894,89.019485 
	C138.137894,89.019485 138.557220,89.000893 138.765778,88.999725 
	C138.984512,90.388275 138.994690,91.777992 138.991852,93.584396 
	C138.978836,94.001083 138.550797,94.000938 138.277573,93.584763 
	C138.048874,91.785561 138.093384,90.402519 138.137894,89.019485 
z"/>
<path fill="#4F4236" opacity="1.000000" stroke="none" 
	d="
M136.091339,53.932037 
	C136.144684,54.032585 136.527893,54.024059 136.718628,54.017715 
	C136.856506,55.094307 136.803635,56.177242 136.583771,57.533516 
	C136.416779,57.806858 136.156433,57.872410 136.084900,57.526031 
	C135.952515,56.095020 135.891663,55.010380 135.830811,53.925743 
	C135.830811,53.925743 136.038010,53.831490 136.091339,53.932037 
z"/>
<path fill="#4F4236" opacity="1.000000" stroke="none" 
	d="
M137.117050,75.031525 
	C137.117050,75.031525 137.517349,75.018112 137.716766,75.012009 
	C137.955139,76.023468 137.994080,77.041046 138.047256,78.436661 
	C137.892578,78.851143 137.723663,78.887581 137.270111,78.554138 
	C136.914383,77.093765 136.843277,76.003288 136.881454,74.875458 
	C136.990753,74.838120 137.117050,75.031525 137.117050,75.031525 
z"/>
<path fill="#4F4236" opacity="1.000000" stroke="none" 
	d="
M138.366074,99.685593 
	C138.281952,99.110298 138.411041,98.316017 138.738464,97.291306 
	C138.817627,97.862778 138.698456,98.664688 138.366074,99.685593 
z"/>
<path fill="#CFB18B" opacity="1.000000" stroke="none" 
	d="
M160.250854,53.423798 
	C160.481903,53.294788 160.694824,53.454117 160.933563,53.876144 
	C160.722443,54.009033 160.480240,53.866798 160.250854,53.423798 
z"/>
<path fill="#9A7E63" opacity="1.000000" stroke="none" 
	d="
M99.930229,53.627449 
	C98.296608,54.056953 96.626511,54.082844 94.537506,54.105671 
	C92.791306,53.373413 91.464012,52.644222 90.041565,51.571861 
	C89.909714,50.745800 89.873016,50.262897 89.923019,49.382317 
	C90.009712,48.984634 90.083115,48.908371 90.083115,48.908371 
	C93.126335,49.207973 96.169556,49.507572 99.640686,49.904213 
	C100.010307,51.075447 99.952034,52.149647 99.930229,53.627449 
z"/>
<path fill="#4F4236" opacity="1.000000" stroke="none" 
	d="
M91.625595,115.068359 
	C91.500114,114.453758 91.478226,113.572327 91.708878,112.629364 
	C91.883995,113.312401 91.806587,114.056961 91.625595,115.068359 
z"/>
<path fill="#C1A07E" opacity="1.000000" stroke="none" 
	d="
M76.969269,80.846230 
	C77.542297,81.432190 78.115326,82.018143 78.307266,82.812149 
	C77.926178,83.020195 77.987190,82.998070 77.946487,82.605019 
	C77.593605,81.756721 77.281441,81.301476 76.969269,80.846230 
z"/>
<path fill="#71563D" opacity="1.000000" stroke="none" 
	d="
M76.891556,80.949783 
	C77.281441,81.301476 77.593605,81.756721 77.949280,82.637306 
	C77.602196,82.672638 77.211609,82.282631 76.849915,81.598312 
	C76.878815,81.304001 76.813843,81.053345 76.891556,80.949783 
z"/>
<path fill="#71563D" opacity="1.000000" stroke="none" 
	d="
M75.796242,79.001358 
	C76.117828,78.641281 76.311432,78.600441 76.768631,79.105804 
	C77.028801,79.938255 77.025368,80.224525 77.021935,80.510788 
	C77.021935,80.510788 76.930199,80.941383 76.712563,81.005478 
	C76.219368,80.486580 75.943817,79.903580 75.796242,79.001358 
z"/>
<path fill="#C1A07E" opacity="1.000000" stroke="none" 
	d="
M77.397827,80.400208 
	C77.025368,80.224525 77.028801,79.938255 77.041428,79.222717 
	C77.104584,78.552132 77.231537,78.358772 77.584312,78.125504 
	C77.749329,78.788322 77.761528,79.538979 77.397827,80.400208 
z"/>
<path fill="#4F4236" opacity="1.000000" stroke="none" 
	d="
M92.801064,115.797577 
	C92.629593,115.917595 92.302933,115.831398 91.822098,115.539612 
	C91.993904,115.419800 92.319885,115.505577 92.801064,115.797577 
z"/>
<path fill="#BC9370" opacity="1.000000" stroke="none" 
	d="
M160.177551,136.945679 
	C159.874268,136.532364 159.960297,136.127640 160.095001,135.416367 
	C161.765198,133.862991 164.127701,132.958984 164.888687,131.314072 
	C170.038803,120.181786 174.850342,108.892860 180.123871,97.477707 
	C180.688705,97.495903 180.859894,97.722137 180.975067,98.370041 
	C180.623444,100.501961 180.286636,102.243362 179.949829,103.984772 
	C179.562637,104.207977 179.175446,104.431183 178.677872,105.121460 
	C174.701569,114.726616 170.835632,123.864700 166.969696,133.002777 
	C164.835403,134.319946 162.701126,135.637115 160.177551,136.945679 
z"/>
<path fill="#B2926C" opacity="1.000000" stroke="none" 
	d="
M180.989899,97.979523 
	C180.859894,97.722137 180.688705,97.495903 180.306503,97.171272 
	C182.618195,91.205696 185.099762,85.369659 187.808228,79.271729 
	C188.412918,79.024315 188.790695,79.038780 189.451630,79.055931 
	C189.734772,79.058609 189.900360,79.044014 189.913574,79.426270 
	C189.948517,80.207474 189.970230,80.606438 189.991943,81.005394 
	C189.741638,81.794685 189.491333,82.583977 188.781708,83.746788 
	C187.543213,85.408852 186.764069,86.697395 185.984909,87.985947 
	C185.410248,88.806396 184.835571,89.626854 184.119766,91.092285 
	C183.986115,92.478157 183.993591,93.219063 184.001068,93.959961 
	C184.001083,93.959961 183.979492,93.986908 183.775543,94.128220 
	C183.331558,94.475090 183.140686,94.719093 182.998962,95.001556 
	C182.998962,95.001556 182.967041,95.434898 182.737808,95.846436 
	C182.002350,96.831818 181.496124,97.405670 180.989899,97.979523 
z"/>
<path fill="#FDFAF1" opacity="1.000000" stroke="none" 
	d="
M65.098236,77.226974 
	C64.240845,76.645088 63.705986,76.105019 63.031181,75.314507 
	C63.701290,72.456802 64.511345,69.849541 65.609467,67.000961 
	C68.830498,67.092651 72.219658,66.809937 72.906448,70.814728 
	C73.407379,73.735741 73.182617,76.543678 69.084641,77.895859 
	C68.232910,78.075905 68.036880,78.133156 67.840858,78.190407 
	C67.034157,77.883194 66.227463,77.575981 65.098236,77.226974 
z"/>
<path fill="#CFB18B" opacity="1.000000" stroke="none" 
	d="
M100.845245,157.248489 
	C98.830528,153.121857 96.583832,149.090057 94.849808,144.848663 
	C91.337372,136.257309 88.102699,127.552383 85.050537,118.471687 
	C85.558990,118.035950 85.770416,118.022812 85.981842,118.009682 
	C90.291962,128.432205 94.602089,138.854721 98.973877,149.884064 
	C99.035538,150.490891 99.065331,150.988419 99.185394,151.301575 
	C99.891716,153.062454 100.477974,154.510208 101.010162,156.280945 
	C100.919151,156.818787 100.882195,157.033630 100.845245,157.248489 
z"/>
<path fill="#E6D1B0" opacity="1.000000" stroke="none" 
	d="
M101.064232,155.957947 
	C100.477974,154.510208 99.891716,153.062454 99.507027,151.304718 
	C100.138802,150.995483 100.569008,150.996231 100.999207,150.996979 
	C101.474876,151.298752 101.950539,151.600510 102.710510,151.947784 
	C104.759354,151.676895 106.523895,151.360489 108.652069,151.380066 
	C108.281639,153.138260 107.547577,154.560471 106.530312,156.064880 
	C104.519485,156.084045 102.791862,156.020996 101.064232,155.957947 
z"/>
<path fill="#D8BB98" opacity="1.000000" stroke="none" 
	d="
M84.630325,115.939499 
	C83.742126,114.753716 82.932945,113.201691 82.134155,111.294563 
	C82.999481,112.484055 83.854416,114.028656 84.630325,115.939499 
z"/>
<path fill="#D8BB98" opacity="1.000000" stroke="none" 
	d="
M81.239716,107.806458 
	C80.792297,107.490982 80.507484,106.995132 80.249107,106.198898 
	C80.651123,106.474373 81.026718,107.050232 81.239716,107.806458 
z"/>
<path fill="#EAD6B4" opacity="1.000000" stroke="none" 
	d="
M100.805786,150.792358 
	C100.569008,150.996231 100.138802,150.995483 99.386963,150.991577 
	C99.065331,150.988419 99.035538,150.490891 99.047981,150.241943 
	C99.577736,150.191269 100.095047,150.389526 100.805786,150.792358 
z"/>
<path fill="#D8BB98" opacity="1.000000" stroke="none" 
	d="
M85.931358,117.710007 
	C85.770416,118.022812 85.558990,118.035950 85.028992,118.081879 
	C84.655426,117.718414 84.600441,117.322159 84.568848,116.631760 
	C85.021790,116.695183 85.451332,117.052757 85.931358,117.710007 
z"/>
<path fill="#D8C2A2" opacity="1.000000" stroke="none" 
	d="
M68.019989,78.349380 
	C68.036880,78.133156 68.232910,78.075905 68.734146,77.988968 
	C69.039352,77.959297 69.086853,78.296150 69.110039,78.464325 
	C69.133224,78.632507 68.655060,78.654083 68.655060,78.654083 
	C68.655060,78.654083 68.199120,78.508354 68.019989,78.349380 
z"/>
<path fill="#1E120C" opacity="1.000000" stroke="none" 
	d="
M106.813507,155.982666 
	C107.547577,154.560471 108.281639,153.138260 109.038132,151.368134 
	C111.478775,149.061005 113.896996,147.101822 116.656448,145.036072 
	C117.723846,144.901505 118.449997,144.873505 119.702003,145.081497 
	C121.182396,145.723526 122.136940,146.129547 123.091476,146.535568 
	C122.754166,145.743622 122.416862,144.951660 122.101562,144.060760 
	C122.123558,143.961807 121.946190,143.863617 121.946190,143.863617 
	C122.694138,143.875443 123.442093,143.887283 124.913948,144.068161 
	C128.792938,145.702164 131.963196,147.818893 134.995819,144.019501 
	C136.381210,144.019928 137.766602,144.020340 139.643158,144.418213 
	C141.483215,147.056686 142.808990,148.181183 144.434753,144.710632 
	C145.880249,144.719986 146.931168,144.753586 148.396164,144.884247 
	C153.305237,144.962646 158.516632,148.196045 161.682877,142.145554 
	C162.847931,140.767990 164.012985,139.390442 165.178055,138.012878 
	C165.396530,138.115387 165.615021,138.217896 165.833496,138.320404 
	C165.510666,139.608841 165.187836,140.897278 164.799484,142.540161 
	C164.104233,144.008606 163.474518,145.122635 162.743866,146.544403 
	C160.699585,151.550522 158.756226,156.248886 156.420135,160.602432 
	C154.379013,158.027145 153.211349,154.821228 151.000641,153.731705 
	C140.299988,148.458023 129.040680,148.606232 117.889084,152.213104 
	C115.280281,153.056885 113.181770,155.478409 110.522827,157.298157 
	C109.874199,159.262711 109.551231,161.103180 108.833145,162.952728 
	C107.911118,162.959641 107.384186,162.957458 106.902115,162.521057 
	C106.902473,160.052109 106.857986,158.017395 106.813507,155.982666 
z"/>
<path fill="#BC9370" opacity="1.000000" stroke="none" 
	d="
M161.216675,142.110382 
	C158.516632,148.196045 153.305237,144.962646 148.377167,144.522949 
	C147.625885,141.407669 146.500015,138.533585 147.144821,136.135605 
	C148.895157,129.626099 151.303238,123.283508 153.680954,116.961411 
	C154.132187,115.761665 155.642288,114.960175 156.663834,113.974922 
	C156.193893,119.022308 155.723938,124.069695 155.207993,129.565125 
	C153.809433,132.795654 152.313690,135.524994 151.242065,138.411774 
	C151.058594,138.906021 152.545822,140.555634 153.503662,140.832367 
	C155.843658,141.508347 158.325653,141.692841 161.216675,142.110382 
z"/>
<path fill="#281C15" opacity="1.000000" stroke="none" 
	d="
M167.340179,133.041000 
	C170.835632,123.864700 174.701569,114.726616 178.749573,105.285522 
	C179.227127,105.777267 179.985352,106.762383 179.748505,107.338150 
	C176.338272,115.628471 172.809982,123.870590 169.240417,132.094070 
	C169.039627,132.556641 168.234497,132.756882 167.340179,133.041000 
z"/>
<path fill="#A68565" opacity="1.000000" stroke="none" 
	d="
M180.975067,98.370041 
	C181.496124,97.405670 182.002350,96.831818 182.723389,96.063210 
	C182.156693,98.530418 181.375198,101.192390 180.271759,103.919563 
	C180.286636,102.243362 180.623444,100.501961 180.975067,98.370041 
z"/>
<path fill="#A68565" opacity="1.000000" stroke="none" 
	d="
M186.252991,88.067848 
	C186.764069,86.697395 187.543213,85.408852 188.644089,84.028130 
	C188.150894,85.340553 187.335968,86.745155 186.252991,88.067848 
z"/>
<path fill="#A68565" opacity="1.000000" stroke="none" 
	d="
M184.306976,93.890823 
	C183.993591,93.219063 183.986115,92.478157 183.986664,91.366257 
	C184.200760,91.937393 184.406830,92.879539 184.306976,93.890823 
z"/>
<path fill="#A68565" opacity="1.000000" stroke="none" 
	d="
M190.193542,80.840775 
	C189.970230,80.606438 189.948517,80.207474 189.916351,79.509338 
	C190.090942,79.195343 190.275986,79.180527 190.734375,79.218323 
	C190.803543,79.739334 190.599350,80.207748 190.193542,80.840775 
z"/>
<path fill="#A68565" opacity="1.000000" stroke="none" 
	d="
M183.191238,94.870102 
	C183.140686,94.719093 183.331558,94.475090 183.767548,94.143524 
	C183.819321,94.297424 183.626007,94.537804 183.191238,94.870102 
z"/>
<path fill="#C6A17C" opacity="1.000000" stroke="none" 
	d="
M156.764160,113.547180 
	C155.642288,114.960175 154.132187,115.761665 153.680954,116.961411 
	C151.303238,123.283508 148.895157,129.626099 147.144821,136.135605 
	C146.500015,138.533585 147.625885,141.407669 147.963104,144.425903 
	C146.931168,144.753586 145.880249,144.719986 144.214264,144.535248 
	C143.061829,144.217346 142.524475,144.050583 141.987106,143.883804 
	C139.178558,136.573502 141.613037,130.627869 146.184738,124.756302 
	C148.075150,122.328377 148.388275,118.655228 149.349121,115.527016 
	C149.931152,113.632164 150.379807,111.696327 151.291321,109.286446 
	C152.775391,106.644569 153.780334,104.452301 154.958694,102.357574 
	C156.179398,100.187561 157.568237,98.112122 158.883514,95.995316 
	C158.210510,101.703362 157.537491,107.411400 156.764160,113.547180 
z"/>
<path fill="#CAA782" opacity="1.000000" stroke="none" 
	d="
M159.003067,95.593704 
	C157.568237,98.112122 156.179398,100.187561 154.958694,102.357574 
	C153.780334,104.452301 152.775391,106.644569 151.366852,108.904976 
	C152.711136,100.933571 154.182205,92.800812 156.189941,84.802773 
	C156.718231,82.698296 158.906891,81.010612 160.684280,79.065872 
	C160.397873,84.397507 159.760239,89.794807 159.003067,95.593704 
z"/>
<path fill="#9A7E63" opacity="1.000000" stroke="none" 
	d="
M89.971649,49.021408 
	C89.816208,48.860073 89.698822,48.661968 89.581436,48.463863 
	C89.712730,48.497761 89.844032,48.531662 90.029221,48.736965 
	C90.083115,48.908371 90.009712,48.984634 89.971649,49.021408 
z"/>
<path fill="#B2926C" opacity="1.000000" stroke="none" 
	d="
M108.455734,172.891602 
	C106.943863,172.259048 105.800262,171.665482 104.332382,171.024719 
	C103.756157,170.498657 103.504211,170.019745 103.226082,169.264694 
	C102.617966,166.159607 102.036026,163.330688 101.902374,160.414078 
	C103.528404,161.536835 104.706146,162.747269 106.039093,164.282684 
	C107.564720,167.390518 108.935143,170.173340 110.305565,172.956177 
	C109.811714,172.947647 109.317863,172.939117 108.455734,172.891602 
z"/>
<path fill="#D8C2A2" opacity="1.000000" stroke="none" 
	d="
M105.883888,163.957703 
	C104.706146,162.747269 103.528404,161.536835 102.077423,160.148254 
	C101.577408,159.235580 101.350639,158.501083 100.984558,157.507538 
	C100.882195,157.033630 100.919151,156.818787 101.010162,156.280945 
	C102.791862,156.020996 104.519485,156.084045 106.530304,156.064880 
	C106.857986,158.017395 106.902473,160.052109 106.662834,162.598083 
	C106.213768,163.392105 106.048828,163.674911 105.883888,163.957703 
z"/>
<path fill="#135234" opacity="1.000000" stroke="none" 
	d="
M110.848495,157.174042 
	C113.181770,155.478409 115.280281,153.056885 117.889084,152.213104 
	C129.040680,148.606232 140.299988,148.458023 151.000641,153.731705 
	C153.211349,154.821228 154.379013,158.027145 156.056732,160.639450 
	C156.086044,161.021286 156.056747,161.514618 156.114273,161.754608 
	C153.864990,163.785675 151.558197,165.576767 149.040329,167.652267 
	C148.076187,168.208038 147.323120,168.479385 145.991669,168.890106 
	C144.638031,169.266769 143.862762,169.504074 143.087479,169.741394 
	C142.202499,169.706589 141.317505,169.671783 139.815689,169.819214 
	C137.178406,170.352921 135.157944,170.704391 132.808167,170.768738 
	C130.081131,170.224594 127.683449,169.967575 125.221115,169.413162 
	C123.214005,168.432251 121.277496,167.731232 119.327904,167.068695 
	C114.543213,165.442749 110.559891,163.142288 110.848495,157.174042 
z"/>
<path fill="#9F7A4F" opacity="1.000000" stroke="none" 
	d="
M133.137497,171.055847 
	C135.157944,170.704391 137.178406,170.352921 139.583435,169.993561 
	C141.602371,170.661392 143.181610,171.627960 144.882935,171.950470 
	C148.118668,172.563843 151.424225,172.808960 154.868317,173.554474 
	C146.676178,177.839264 137.862274,175.548843 129.237839,175.715118 
	C126.137016,175.774902 123.025490,175.279953 119.467667,175.053024 
	C116.428360,176.022095 114.214844,175.731201 112.253311,172.756882 
	C113.144341,172.016586 114.459999,171.437103 115.793869,171.391632 
	C121.572182,171.194641 127.355804,171.153610 133.137497,171.055847 
z"/>
<path fill="#E1CAA5" opacity="1.000000" stroke="none" 
	d="
M195.697937,61.149246 
	C196.344711,62.691944 196.618881,64.232437 197.192795,66.040070 
	C196.212875,67.176651 194.933212,68.046104 193.371277,69.112076 
	C191.821854,66.036598 190.703110,62.805279 195.697937,61.149246 
z"/>
<path fill="#37281C" opacity="1.000000" stroke="none" 
	d="
M143.424255,169.816132 
	C143.862762,169.504074 144.638031,169.266769 145.727051,169.049393 
	C145.280869,169.343155 144.520950,169.617004 143.424255,169.816132 
z"/>
<path fill="#22160F" opacity="1.000000" stroke="none" 
	d="
M132.808167,170.768738 
	C127.355804,171.153610 121.572182,171.194641 115.793869,171.391632 
	C114.459999,171.437103 113.144341,172.016586 111.922844,172.679535 
	C111.643089,172.974106 111.260788,172.939453 110.592026,172.930481 
	C108.935143,170.173340 107.564720,167.390518 106.039093,164.282684 
	C106.048828,163.674911 106.213768,163.392105 106.617981,163.032303 
	C107.384186,162.957458 107.911118,162.959641 109.054001,163.200775 
	C113.326172,169.387482 119.379753,169.365265 125.285759,169.710556 
	C127.683449,169.967575 130.081131,170.224594 132.808167,170.768738 
z"/>
<path fill="#DCC39F" opacity="1.000000" stroke="none" 
	d="
M135.548676,108.104195 
	C136.359604,108.300812 136.843124,108.605850 137.636963,108.878990 
	C137.963516,109.313744 137.979767,109.780388 137.642624,110.672035 
	C136.867493,112.383881 136.445755,113.670731 136.024017,114.957581 
	C134.130386,120.716347 131.947388,126.401634 130.458801,132.263260 
	C129.650909,135.444473 130.024979,138.925888 129.546936,142.772827 
	C127.895370,143.349625 126.562782,143.425446 125.230186,143.501266 
	C123.000824,138.416992 125.066444,133.767227 126.830635,129.163727 
	C129.522446,122.139755 132.414352,115.192467 135.548676,108.104195 
z"/>
<path fill="#E5CEAC" opacity="1.000000" stroke="none" 
	d="
M120.010956,144.003586 
	C115.437393,138.354874 116.886971,132.849106 120.701118,127.196350 
	C121.446770,128.806122 122.225891,130.602859 122.276100,132.419754 
	C122.374039,135.963531 122.064133,139.518585 121.934647,143.466293 
	C121.946190,143.863617 122.123558,143.961807 121.760956,143.993423 
	C120.935883,144.017883 120.473419,144.010742 120.010956,144.003586 
z"/>
<path fill="#37281C" opacity="1.000000" stroke="none" 
	d="
M125.147163,143.611694 
	C126.562782,143.425446 127.895370,143.349625 129.616669,143.173126 
	C131.335922,143.244446 132.666443,143.416412 134.399429,143.558624 
	C134.801880,143.528870 134.906998,143.770966 134.951416,143.895233 
	C131.963196,147.818893 128.792938,145.702164 125.287842,144.102524 
	C124.937820,143.967850 125.064140,143.722122 125.147163,143.611694 
z"/>
<path fill="#1E120C" opacity="1.000000" stroke="none" 
	d="
M136.140381,78.908142 
	C136.159744,80.394783 136.179092,81.881424 136.418762,84.096481 
	C136.785202,85.885002 136.931320,86.945099 137.002777,88.251877 
	C136.872055,88.660973 136.815994,88.823387 136.759918,88.985809 
	C136.404312,88.985985 136.048691,88.986153 135.426331,88.988205 
	C135.071884,87.916885 134.984177,86.843689 134.795959,85.378601 
	C134.503601,80.634216 134.311768,76.281715 134.575226,71.465034 
	C135.313599,71.014542 135.596649,71.028244 135.928070,71.433319 
	C136.047455,72.873207 136.118500,73.921722 136.112564,75.357864 
	C136.070526,76.799706 136.105453,77.853928 136.140381,78.908142 
z"/>
<path fill="#1E120C" opacity="1.000000" stroke="none" 
	d="
M135.134827,57.950741 
	C135.241943,60.410614 135.349045,62.870487 135.648254,65.991028 
	C135.812897,67.078568 135.785461,67.505447 135.479568,67.952080 
	C134.830948,67.971191 134.460800,67.970535 134.090637,67.969879 
	C134.090637,61.982777 134.090637,55.995670 134.090637,50.008568 
	C134.353088,49.999207 134.615540,49.989845 134.878006,49.980484 
	C134.928391,51.057175 134.978775,52.133862 135.011414,53.983166 
	C135.040710,55.820766 135.087769,56.885754 135.134827,57.950741 
z"/>
<path fill="#4F4236" opacity="1.000000" stroke="none" 
	d="
M133.995972,68.221664 
	C134.460800,67.970535 134.830948,67.971191 135.593002,68.330521 
	C135.949844,69.473442 135.914780,70.257690 135.879715,71.041939 
	C135.596649,71.028244 135.313599,71.014542 134.605331,71.000542 
	C134.084213,70.499931 133.988312,69.999619 133.829590,69.246841 
	C133.811646,68.820717 133.856476,68.647079 133.995972,68.221664 
z"/>
<path fill="#CEB191" opacity="1.000000" stroke="none" 
	d="
M135.328766,57.980396 
	C135.087769,56.885754 135.040710,55.820766 135.067017,54.363068 
	C135.140396,53.970352 135.488113,53.986904 135.659454,53.956322 
	C135.891663,55.010380 135.952515,56.095020 135.963959,57.584286 
	C135.914551,57.988914 135.522720,58.010052 135.328766,57.980396 
z"/>
<path fill="#37281C" opacity="1.000000" stroke="none" 
	d="
M119.966492,144.187744 
	C120.473419,144.010742 120.935883,144.017883 121.738953,144.092377 
	C122.416862,144.951660 122.754166,145.743622 123.091476,146.535568 
	C122.136940,146.129547 121.182396,145.723526 120.063492,145.033783 
	C119.899132,144.750061 119.922028,144.371887 119.966492,144.187744 
z"/>
<path fill="#37281C" opacity="1.000000" stroke="none" 
	d="
M141.650986,143.933228 
	C142.524475,144.050583 143.061829,144.217346 143.819702,144.559494 
	C142.808990,148.181183 141.483215,147.056686 140.053589,144.489197 
	C140.420166,144.102707 140.867523,144.042664 141.650986,143.933228 
z"/>
<path fill="#C1A07E" opacity="1.000000" stroke="none" 
	d="
M136.365997,114.866508 
	C136.445755,113.670731 136.867493,112.383881 137.648163,111.022202 
	C137.574051,112.223396 137.141006,113.499413 136.365997,114.866508 
z"/>
<path fill="#D8C2A2" opacity="1.000000" stroke="none" 
	d="
M136.849716,89.372345 
	C136.815994,88.823387 136.872055,88.660973 137.189362,88.265274 
	C137.450592,88.031990 137.824661,88.029015 137.824661,88.029015 
	C137.866852,88.197266 137.909027,88.365509 138.044556,88.776627 
	C138.093384,90.402519 138.048874,91.785561 138.063599,93.580109 
	C137.800140,94.231743 137.477432,94.471870 137.154739,94.712006 
	C137.082993,93.060966 137.011261,91.409920 136.849716,89.372345 
z"/>
<path fill="#E5CEAC" opacity="1.000000" stroke="none" 
	d="
M135.928070,71.433319 
	C135.914780,70.257690 135.949844,69.473442 135.871460,68.310760 
	C135.785461,67.505447 135.812897,67.078568 135.850861,66.330383 
	C136.044556,65.992874 136.227692,65.976662 136.684937,65.990799 
	C136.976898,68.725281 136.994766,71.429405 137.064850,74.582535 
	C137.117050,75.031525 136.990753,74.838120 136.736053,74.892097 
	C136.481354,74.946075 136.189560,74.970238 136.189545,74.970238 
	C136.118500,73.921722 136.047455,72.873207 135.928070,71.433319 
z"/>
<path fill="#C1A07E" opacity="1.000000" stroke="none" 
	d="
M137.911591,87.634239 
	C137.824661,88.029015 137.450592,88.031990 137.264008,88.018593 
	C136.931320,86.945099 136.785202,85.885002 136.593475,84.424072 
	C136.806564,84.020844 137.065292,84.018433 137.712128,84.010689 
	C138.066330,85.083389 138.032425,86.161430 137.911591,87.634239 
z"/>
<path fill="#CAA782" opacity="1.000000" stroke="none" 
	d="
M136.112579,75.357864 
	C136.189560,74.970238 136.481354,74.946075 136.626755,74.929443 
	C136.843277,76.003288 136.914383,77.093765 137.014023,78.594162 
	C137.042557,79.004066 136.587631,78.991600 136.364014,78.949875 
	C136.105453,77.853928 136.070526,76.799706 136.112579,75.357864 
z"/>
<path fill="#B2926C" opacity="1.000000" stroke="none" 
	d="
M125.221115,169.413162 
	C119.379753,169.365265 113.326172,169.387482 109.449112,163.191681 
	C109.551231,161.103180 109.874199,159.262711 110.522835,157.298157 
	C110.559891,163.142288 114.543213,165.442749 119.327904,167.068695 
	C121.277496,167.731232 123.214005,168.432251 125.221115,169.413162 
z"/>
</svg>